<svg xmlns="http://www.w3.org/2000/svg" xmlns:xlink="http://www.w3.org/1999/xlink" width="1024" height="1024" viewBox="0 0 270.933 270.933"><defs><linearGradient gradientTransform="matrix(2.75805 0 0 2.75805 -320.745 231.684)" xlink:href="#d" id="o" x1="167.373" y1="-36.426" x2="174.854" y2="-31.355" gradientUnits="userSpaceOnUse"/><linearGradient id="a"><stop style="stop-color:#fff;stop-opacity:1" offset="0"/><stop style="stop-color:#fff;stop-opacity:0" offset="1"/></linearGradient><linearGradient xlink:href="#b" id="u" gradientUnits="userSpaceOnUse" x1="-57.986" y1="165.526" x2="-58.683" y2="161.571" gradientTransform="scale(-2.75805 2.75805) rotate(20 138.739 389.857)"/><linearGradient id="b"><stop style="stop-color:#be6918;stop-opacity:1" offset="0"/><stop style="stop-color:#d27d2c;stop-opacity:1" offset="1"/></linearGradient><linearGradient xlink:href="#b" id="t" gradientUnits="userSpaceOnUse" x1="-58.756" y1="165.329" x2="-59.478" y2="161.233" gradientTransform="scale(-2.75805 2.75805) rotate(20 138.739 389.857)"/><linearGradient xlink:href="#b" id="s" gradientUnits="userSpaceOnUse" x1="-111.797" y1="135.708" x2="-111.036" y2="131.39" gradientTransform="scale(-2.75805 2.75805) rotate(-20 -138.739 -389.857)"/><linearGradient xlink:href="#b" id="r" gradientUnits="userSpaceOnUse" x1="-110.938" y1="135.46" x2="-110.206" y2="131.306" gradientTransform="scale(-2.75805 2.75805) rotate(-20 -138.739 -389.857)"/><linearGradient gradientTransform="matrix(3.368 0 0 4.72496 429.882 -398.365)" xlink:href="#c" id="q" x1="-87.415" y1="132.061" x2="-87.415" y2="90.457" gradientUnits="userSpaceOnUse"/><linearGradient id="c"><stop style="stop-color:#aadeff;stop-opacity:1" offset="0"/><stop style="stop-color:#aadeff;stop-opacity:0" offset="1"/></linearGradient><linearGradient gradientTransform="matrix(2.75805 0 0 2.75805 -320.745 231.684)" xlink:href="#d" id="p" x1="173.653" y1="-29.943" x2="181.905" y2="-24.348" gradientUnits="userSpaceOnUse"/><linearGradient id="d"><stop style="stop-color:#78ccff;stop-opacity:1" offset="0"/><stop style="stop-color:#64b8eb;stop-opacity:1" offset="1"/></linearGradient><linearGradient id="g"><stop style="stop-color:#606080;stop-opacity:1" offset="0"/><stop style="stop-color:#babada;stop-opacity:1" offset="1"/></linearGradient><linearGradient gradientTransform="matrix(2.75805 0 0 2.75805 -320.745 231.684)" xlink:href="#d" id="n" x1="164.935" y1="-46.245" x2="171.564" y2="-41.751" gradientUnits="userSpaceOnUse"/><linearGradient xlink:href="#d" id="k" x1="69.072" y1="95.794" x2="75.701" y2="100.288" gradientUnits="userSpaceOnUse"/><linearGradient xlink:href="#d" id="l" x1="74.874" y1="101.393" x2="82.348" y2="106.46" gradientUnits="userSpaceOnUse"/><linearGradient xlink:href="#d" id="m" x1="79.392" y1="110.534" x2="86.976" y2="115.676" gradientUnits="userSpaceOnUse"/><linearGradient gradientTransform="matrix(2.75804 0 0 2.75804 372.617 -158.702)" xlink:href="#g" id="h" x1="-132.111" y1="70.247" x2="-40.69" y2="161.668" gradientUnits="userSpaceOnUse"/><linearGradient id="e"><stop style="stop-color:#64b8eb;stop-opacity:1" offset="0"/><stop style="stop-color:#78ccff;stop-opacity:1" offset="1"/></linearGradient><linearGradient gradientTransform="matrix(2.75804 0 0 2.75804 372.617 -158.702)" xlink:href="#f" id="i" gradientUnits="userSpaceOnUse" x1="-84.869" y1="159.426" x2="-84.869" y2="120.964"/><linearGradient id="f"><stop offset="0" style="stop-color:#606080;stop-opacity:1"/><stop offset="1" style="stop-color:#babada;stop-opacity:0"/></linearGradient><linearGradient xlink:href="#a" id="w" x1="231.005" y1="56.845" x2="231.005" y2="94.377" gradientUnits="userSpaceOnUse" gradientTransform="matrix(1.0169 0 0 1 -5.132 0)"/><radialGradient xlink:href="#e" id="j" cx="-85.675" cy="148.892" fx="-85.675" fy="148.892" r="38.86" gradientUnits="userSpaceOnUse" gradientTransform="matrix(4.92765 0 0 2.70286 557.643 -127.26)"/><radialGradient xlink:href="#a" id="v" gradientUnits="userSpaceOnUse" gradientTransform="matrix(4.92765 0 0 2.70286 557.643 -127.26)" cx="-85.675" cy="60.196" fx="-85.675" fy="60.196" r="38.86"/></defs><g transform="translate(0 -26.067)"><circle r="121.935" cy="161.113" cx="134.322" style="fill:#233055;fill-opacity:1;stroke:url(#h);stroke-width:8.27413464;stroke-miterlimit:4;stroke-dasharray:none;stroke-opacity:1"/><circle r="121.935" cy="161.113" cx="134.322" style="fill:none;fill-opacity:1;stroke:url(#i);stroke-width:8.27413464;stroke-miterlimit:4;stroke-dasharray:none;stroke-opacity:1"/><path style="fill:#72b0e0;fill-opacity:1;stroke:#3d5fa0;stroke-width:8.27413464;stroke-miterlimit:4;stroke-dasharray:none;stroke-opacity:1" d="M135.51 66.464c-37.677 0-70.868 19.532-89.981 48.955-.044.063-.13.106-.173.172-.247.306-.465.704-.69 1.034L6.486 172.907c-4.287 6.323-2.618 14.847 3.706 19.134l1.551 1.034c.363.246.745.482 1.12.689l-2.585 3.792c-4.287 6.324-2.617 14.933 3.706 19.22l1.552 1.034c.23.157.453.29.69.43l-.863 1.294c-4.287 6.323-2.617 14.846 3.707 19.134l1.55 1.034c6.325 4.287 14.848 2.703 19.135-3.62l4.31-6.378c18.864 30.666 52.825 51.11 91.446 51.11 38.62 0 72.495-20.444 91.36-51.11l4.31 6.378c4.286 6.323 12.81 7.907 19.133 3.62l1.552-1.034c6.323-4.288 7.993-12.81 3.706-19.134l-.862-1.293c.237-.141.458-.274.69-.43l1.551-1.035c6.324-4.287 7.993-12.896 3.706-19.22l-2.586-3.792c.376-.208.758-.444 1.12-.69l1.552-1.033c6.324-4.287 7.993-12.81 3.706-19.134-13.64-20.162-26.712-39.722-39.043-57.488-26.643-38.78-58.826-48.955-89.895-48.955z"/><circle r="107.179" cy="173.664" cx="135.468" style="fill:url(#j);fill-opacity:1;stroke:none;stroke-width:2.75804472"/><g transform="scale(2.75804) rotate(55.865 113.717 102.552)"><rect style="fill:url(#k);fill-opacity:1;stroke:none;stroke-width:1;stroke-miterlimit:4;stroke-dasharray:none;stroke-opacity:1" width="34.656" height="10.682" x="41.046" y="94.948" rx="5" ry="5"/><rect ry="5" rx="5" y="101.119" x="47.692" height="10.682" width="34.656" style="fill:url(#l);fill-opacity:1;stroke:none;stroke-width:1;stroke-miterlimit:4;stroke-dasharray:none;stroke-opacity:1"/><rect style="fill:url(#m);fill-opacity:1;stroke:none;stroke-width:1;stroke-miterlimit:4;stroke-dasharray:none;stroke-opacity:1" width="34.656" height="10.682" x="53.234" y="107.103" rx="5" ry="5"/></g><rect transform="scale(-1 1) rotate(55.865)" style="fill:url(#n);fill-opacity:1;stroke:none;stroke-width:2.75804496;stroke-miterlimit:4;stroke-dasharray:none;stroke-opacity:1" width="95.582" height="29.46" x="57.643" y="102.4" rx="13.79" ry="13.79"/><rect transform="scale(-1 1) rotate(55.865)" ry="13.79" rx="13.79" y="119.421" x="75.974" height="29.46" width="95.582" style="fill:url(#o);fill-opacity:1;stroke:none;stroke-width:2.75804496;stroke-miterlimit:4;stroke-dasharray:none;stroke-opacity:1"/><rect transform="scale(-1 1) rotate(55.865)" style="fill:url(#p);fill-opacity:1;stroke:none;stroke-width:2.75804496;stroke-miterlimit:4;stroke-dasharray:none;stroke-opacity:1" width="95.582" height="29.46" x="91.26" y="135.925" rx="13.79" ry="13.79"/><ellipse ry="61.693" rx="84.225" cy="212.512" cx="135.468" style="fill:url(#q);fill-opacity:1;stroke:none;stroke-width:3.98919415"/><path d="M145.643 152.61c1.635 2.545-1.44 7.022-2.953 9.642-1.626 2.817-4.013 7.896-7.262 8.05-3.022.144-5.362-4.758-6.875-7.378-1.626-2.817-4.83-7.424-3.34-10.314 1.387-2.69 6.802-2.265 9.827-2.265 3.253 0 8.844-.472 10.603 2.265z" style="fill:#d27d2c;fill-opacity:1;stroke:#a04600;stroke-width:2.75804472;stroke-miterlimit:4;stroke-dasharray:none;stroke-opacity:1"/><rect transform="scale(-1 1) rotate(-10)" ry="8.274" rx="8.274" y="242.991" x="-162.881" height="20.343" width="11.947" style="display:inline;overflow:visible;visibility:visible;fill:url(#r);fill-opacity:1;fill-rule:nonzero;stroke:#a04600;stroke-width:2.75804472;stroke-linecap:butt;stroke-linejoin:miter;stroke-miterlimit:4;stroke-dasharray:none;stroke-dashoffset:0;stroke-opacity:1;marker:none;marker-start:none;marker-mid:none;marker-end:none;enable-background:accumulate"/><rect transform="scale(-1 1) rotate(-10)" style="display:inline;overflow:visible;visibility:visible;fill:url(#s);fill-opacity:1;fill-rule:nonzero;stroke:#a04600;stroke-width:2.75804472;stroke-linecap:butt;stroke-linejoin:miter;stroke-miterlimit:4;stroke-dasharray:none;stroke-dashoffset:0;stroke-opacity:1;marker:none;marker-start:none;marker-mid:none;marker-end:none;enable-background:accumulate" width="11.947" height="20.343" x="-151.848" y="242.991" rx="8.274" ry="8.274"/><rect transform="scale(-1 1) rotate(10)" ry="8.274" rx="8.274" y="290.039" x="-115.887" height="20.343" width="11.947" style="display:inline;overflow:visible;visibility:visible;fill:url(#t);fill-opacity:1;fill-rule:nonzero;stroke:#a04600;stroke-width:2.75804472;stroke-linecap:butt;stroke-linejoin:miter;stroke-miterlimit:4;stroke-dasharray:none;stroke-dashoffset:0;stroke-opacity:1;marker:none;marker-start:none;marker-mid:none;marker-end:none;enable-background:accumulate"/><rect transform="scale(-1 1) rotate(10)" style="fill:url(#u);fill-opacity:1;stroke:#a04600;stroke-width:2.75804472;stroke-miterlimit:4;stroke-dasharray:none;stroke-opacity:1" width="11.947" height="20.343" x="-126.919" y="290.039" rx="8.274" ry="8.274"/><path style="fill:url(#v);fill-opacity:1;stroke:none;stroke-width:2.75804472" d="M134.365 66.464c-56.91 0-107.22 48.465-107.22 107.219 0 59.163 48.057 107.133 107.22 107.133 59.162 0 107.133-47.97 107.133-107.133 0-14.462-2.39-38.04-10.244-49.654l-22.085-.433c-10.413 5.911-12.794 5.47-19.73 3.286 1.17-6.085 3.843-12.166 3.878-18.505l-2.7-26.598c-17.273-10.229-35.189-15.315-56.252-15.315z"/><path style="fill:#f2f5dd;fill-opacity:1;stroke:#3d5fa0;stroke-width:4.13706732;stroke-miterlimit:4;stroke-dasharray:none;stroke-opacity:1" d="M206.53 51.209a13.76 13.76 0 0 0-13.79 13.79v43.18c-1.008 4.882-5.339 15.06-1.983 17.755 3.759 2.614 13.452-2.098 17.927-4.137h40.854c7.64 0 13.79-6.15 13.79-13.79V64.998c0-7.64-6.15-13.79-13.79-13.79z"/><g transform="matrix(2.75804 0 0 2.75804 372.467 -135.477)"><circle r="1.865" cy="97.422" cx="-100.101" transform="translate(-.829 3.316)" style="fill:#000;fill-opacity:1;stroke:none;stroke-opacity:1"/><circle r="1.865" cy="97.422" cx="-100.101" style="fill:#000;fill-opacity:1;stroke:none;stroke-opacity:1" transform="translate(29.171 3.316)"/></g><path d="M209.99 57.158c-6.426 0-11.599 5.087-11.599 11.406v35.715c-.847 4.038-4.49 12.456-1.667 14.685 3.161 2.163 11.314-1.735 15.078-3.422h34.362c6.426 0 11.599-5.087 11.599-11.406V68.564c0-6.32-5.173-11.407-11.599-11.407z" style="fill:url(#w);fill-opacity:1;stroke:none;stroke-width:3.45062947;stroke-miterlimit:4;stroke-dasharray:none;stroke-opacity:1"/><g style="font-style:normal;font-variant:normal;font-weight:400;font-stretch:normal;font-size:33.09653854px;line-height:0%;font-family:Cortoba;-inkscape-font-specification:Cortoba;fill:#002d48;fill-opacity:1;stroke:none;stroke-width:2.75804472px;stroke-linecap:butt;stroke-linejoin:miter;stroke-opacity:1"><path d="M220.82 88.4q0 3.852 1.913 6.06 1.912 2.182 5.252 2.182 3.313 0 5.199-2.208 1.912-2.209 1.912-6.033 0-3.771-1.94-5.98-1.939-2.235-5.225-2.235-3.259 0-5.198 2.208-1.912 2.209-1.912 6.007zm14.68 8.054q-1.616 2.074-3.717 3.07-2.074.97-4.848.97-4.633 0-7.542-3.34-2.882-3.367-2.882-8.753 0-5.387 2.91-8.754 2.908-3.367 7.514-3.367 2.774 0 4.875 1.024 2.1.996 3.69 3.043V76.82h3.851v19.823q3.933-.592 6.141-3.582 2.236-3.016 2.236-7.784 0-2.882-.862-5.414-.835-2.531-2.559-4.686-2.8-3.528-6.84-5.387-4.014-1.885-8.754-1.885-3.313 0-6.357.889-3.043.861-5.63 2.585-4.228 2.748-6.625 7.219-2.37 4.444-2.37 9.642 0 4.282 1.535 8.026 1.562 3.744 4.498 6.6 2.828 2.8 6.545 4.255 3.717 1.481 7.946 1.481 3.474 0 6.814-1.185 3.367-1.158 6.168-3.34l2.424 2.99q-3.367 2.612-7.353 3.986-3.96 1.4-8.053 1.4-4.983 0-9.4-1.777-4.418-1.75-7.865-5.117-3.448-3.367-5.252-7.784-1.805-4.445-1.805-9.535 0-4.902 1.832-9.346 1.831-4.444 5.225-7.811 3.474-3.42 8.026-5.225 4.552-1.832 9.643-1.832 5.71 0 10.585 2.344 4.902 2.343 8.215 6.652 2.02 2.64 3.07 5.737 1.077 3.098 1.077 6.41 0 7.084-4.282 11.178-4.283 4.094-11.824 4.256z" style="font-size:55.1608963px;line-height:1.25;stroke-width:2.75804472px" aria-label="@"/></g></g></svg>